<svg width="40" height="20" viewBox="0 0 31 16" fill="none" xmlns="http://www.w3.org/2000/svg">
  <path d="M2.01561 1.0767L24.9157 1.0767C25.0694 1.07666 25.2215 1.12145 25.3635 1.2085C25.5054 1.29555 25.6344 1.42316 25.743 1.58403L30.0771 7.99977L25.743 14.4155C25.6344 14.5764 25.5054 14.704 25.3635 14.791C25.2215 14.8781 25.0694 14.9229 24.9157 14.9229L2.01561 14.9229C1.70551 14.9229 1.40811 14.7405 1.18884 14.4159C0.969566 14.0913 0.84638 13.6511 0.84638 13.1921V2.80747C0.84638 2.34844 0.969566 1.90821 1.18884 1.58363C1.40811 1.25905 1.70551 1.0767 2.01561 1.0767Z" fill="white" stroke="#EDEDED" stroke-width="1" stroke-linecap="round" stroke-linejoin="round"/>
</svg>
